<svg id="Layer_1" enable-background="new 0 0 512.025 512.025" height="512" viewBox="0 0 512.025 512.025" width="512" xmlns="http://www.w3.org/2000/svg"><g><path d="m448.009 104.025v368c0 22.06-17.94 40-40 40h-304c-22.06 0-40-17.94-40-40v-432c0-22.06 17.94-40 40-40h240c2.12 0 4.16.84 5.66 2.34l96 96c1.5 1.5 2.34 3.54 2.34 5.66z" fill="#edebfd"/><path d="m448.009 104.025v368c0 22.06-17.94 40-40 40h-40c22.06 0 40-17.94 40-40v-368c0-2.12-.84-4.16-2.34-5.66l-69.66-69.66v-20.68c0-5.792 5.973-9.513 10.9-7.45 2.325.897-4.513-5.483 98.76 97.79 1.396 1.396 2.34 3.406 2.34 5.66z" fill="#d2d2fc"/><path d="m440.009 112.025h-96c-4.42 0-8-3.58-8-8v-96c0-7.093 8.606-10.692 13.66-5.66l96 96c5.024 5.046 1.443 13.66-5.66 13.66z" fill="#7acef9"/><path d="m445.669 98.365-96-96c-5.047-5.024-13.66-1.443-13.66 5.66v20.68l69.66 69.66c5.024 5.046 1.443 13.66-5.66 13.66h40c7.093 0 10.691-8.606 5.66-13.66z" fill="#6cb9e7"/><g fill="#7acef9"><path d="m377.009 208.025h-240c-4.418 0-8 3.582-8 8s3.582 8 8 8h240c4.418 0 8-3.582 8-8s-3.582-8-8-8z"/><path d="m137.009 160.025h240c4.418 0 8-3.582 8-8s-3.582-8-8-8h-240c-4.418 0-8 3.582-8 8s3.581 8 8 8z"/><path d="m377.009 272.025h-240c-4.418 0-8 3.582-8 8s3.582 8 8 8h240c4.418 0 8-3.582 8-8s-3.582-8-8-8z"/><path d="m377.009 336.025h-240c-4.418 0-8 3.582-8 8s3.582 8 8 8h240c4.418 0 8-3.582 8-8s-3.582-8-8-8z"/><path d="m313.009 400.025h-176c-4.418 0-8 3.582-8 8s3.582 8 8 8h176c4.418 0 8-3.582 8-8s-3.582-8-8-8z"/></g></g></svg>